# xmcd CD database file
#
# Track frame offsets:
#	150
#	18298
#	36435
#	52632
#	70685
#	84939
#	101759
#	112705
#	134603
#	152153
#	167617
#	183758
#	199186
#
# Disc length: 3045 seconds
#
# Revision: 0
# Processed by: cddbd v1.5.2PL0 Copyright (c) Steve Scherf et al.
# Submitted via: CDex 1.51
#
DISCID=9a0be30d
DTITLE=Claudia Vorbach - Come Down Easy
DYEAR=2015
DGENRE=Jazz
TTITLE0=Mountains To Climb
TTITLE1=Life Is A Dance  (Flute Version)
TTITLE2=Soultime (Recreation)
TTITLE3=It Goes To My Head
TTITLE4=Your Island
TTITLE5=Right Now
TTITLE6=Circuitous Ways
TTITLE7=All We Are
TTITLE8=Open Wings
TTITLE9=Come Down Easy
TTITLE10=Two Trees
TTITLE11=Give It To The Time
TTITLE12=See You Home
EXTD=YEAR: 2015
EXTT0=
EXTT1=
EXTT2=
EXTT3=
EXTT4=
EXTT5=
EXTT6=
EXTT7=
EXTT8=
EXTT9=
EXTT10=
EXTT11=
EXTT12=
PLAYORDER=
